<mxfile host="app.diagrams.net" modified="2022-07-27T06:17:41.251Z" agent="5.0 (Macintosh; Intel Mac OS X 10_15_7) AppleWebKit/537.36 (KHTML, like Gecko) Chrome/103.0.0.0 Safari/537.36" etag="BOk6B5ezcmzhAcZp_v3t" version="20.1.4" type="github">
  <diagram id="C5RBs43oDa-KdzZeNtuy" name="Page-1">
    <mxGraphModel dx="1211" dy="1978" grid="1" gridSize="10" guides="1" tooltips="1" connect="1" arrows="1" fold="1" page="1" pageScale="1" pageWidth="827" pageHeight="1169" math="0" shadow="0">
      <root>
        <mxCell id="WIyWlLk6GJQsqaUBKTNV-0" />
        <mxCell id="WIyWlLk6GJQsqaUBKTNV-1" parent="WIyWlLk6GJQsqaUBKTNV-0" />
        <mxCell id="Q5orRy43gQItZG8SAxax-2" value="" style="edgeStyle=orthogonalEdgeStyle;rounded=0;orthogonalLoop=1;jettySize=auto;html=1;" edge="1" parent="WIyWlLk6GJQsqaUBKTNV-1" source="Q5orRy43gQItZG8SAxax-0" target="Q5orRy43gQItZG8SAxax-1">
          <mxGeometry relative="1" as="geometry" />
        </mxCell>
        <mxCell id="Q5orRy43gQItZG8SAxax-4" value="" style="edgeStyle=orthogonalEdgeStyle;rounded=0;orthogonalLoop=1;jettySize=auto;html=1;" edge="1" parent="WIyWlLk6GJQsqaUBKTNV-1" source="Q5orRy43gQItZG8SAxax-0" target="Q5orRy43gQItZG8SAxax-3">
          <mxGeometry relative="1" as="geometry" />
        </mxCell>
        <mxCell id="Q5orRy43gQItZG8SAxax-0" value="营业且付费店铺&lt;br&gt;4880" style="rounded=1;whiteSpace=wrap;html=1;" vertex="1" parent="WIyWlLk6GJQsqaUBKTNV-1">
          <mxGeometry x="30" y="160" width="120" height="60" as="geometry" />
        </mxCell>
        <mxCell id="Q5orRy43gQItZG8SAxax-6" value="" style="edgeStyle=orthogonalEdgeStyle;rounded=0;orthogonalLoop=1;jettySize=auto;html=1;" edge="1" parent="WIyWlLk6GJQsqaUBKTNV-1" source="Q5orRy43gQItZG8SAxax-1" target="Q5orRy43gQItZG8SAxax-5">
          <mxGeometry relative="1" as="geometry" />
        </mxCell>
        <mxCell id="Q5orRy43gQItZG8SAxax-8" style="edgeStyle=orthogonalEdgeStyle;rounded=0;orthogonalLoop=1;jettySize=auto;html=1;entryX=0;entryY=0.5;entryDx=0;entryDy=0;" edge="1" parent="WIyWlLk6GJQsqaUBKTNV-1" source="Q5orRy43gQItZG8SAxax-1" target="Q5orRy43gQItZG8SAxax-7">
          <mxGeometry relative="1" as="geometry" />
        </mxCell>
        <mxCell id="Q5orRy43gQItZG8SAxax-1" value="访问admin首页店铺&lt;br&gt;2124(44%)" style="rounded=1;whiteSpace=wrap;html=1;" vertex="1" parent="WIyWlLk6GJQsqaUBKTNV-1">
          <mxGeometry x="210" y="210" width="120" height="60" as="geometry" />
        </mxCell>
        <mxCell id="Q5orRy43gQItZG8SAxax-3" value="未访问admin首页店铺&lt;br&gt;2756(56%)" style="whiteSpace=wrap;html=1;rounded=1;fillColor=#eeeeee;strokeColor=#36393d;" vertex="1" parent="WIyWlLk6GJQsqaUBKTNV-1">
          <mxGeometry x="210" y="110" width="120" height="60" as="geometry" />
        </mxCell>
        <mxCell id="Q5orRy43gQItZG8SAxax-46" style="edgeStyle=orthogonalEdgeStyle;rounded=0;orthogonalLoop=1;jettySize=auto;html=1;entryX=0;entryY=0.5;entryDx=0;entryDy=0;" edge="1" parent="WIyWlLk6GJQsqaUBKTNV-1" source="Q5orRy43gQItZG8SAxax-5" target="Q5orRy43gQItZG8SAxax-16">
          <mxGeometry relative="1" as="geometry" />
        </mxCell>
        <mxCell id="Q5orRy43gQItZG8SAxax-47" style="edgeStyle=orthogonalEdgeStyle;rounded=0;orthogonalLoop=1;jettySize=auto;html=1;entryX=0;entryY=0.5;entryDx=0;entryDy=0;" edge="1" parent="WIyWlLk6GJQsqaUBKTNV-1" source="Q5orRy43gQItZG8SAxax-5" target="Q5orRy43gQItZG8SAxax-14">
          <mxGeometry relative="1" as="geometry" />
        </mxCell>
        <mxCell id="Q5orRy43gQItZG8SAxax-5" value="有卡片曝光店铺&lt;br&gt;1550(32%)" style="whiteSpace=wrap;html=1;rounded=1;" vertex="1" parent="WIyWlLk6GJQsqaUBKTNV-1">
          <mxGeometry x="410" y="250" width="120" height="60" as="geometry" />
        </mxCell>
        <mxCell id="Q5orRy43gQItZG8SAxax-7" value="无卡片曝光店铺&lt;br&gt;574(12%)" style="whiteSpace=wrap;html=1;rounded=1;fillColor=#eeeeee;strokeColor=#36393d;" vertex="1" parent="WIyWlLk6GJQsqaUBKTNV-1">
          <mxGeometry x="410" y="170" width="120" height="60" as="geometry" />
        </mxCell>
        <mxCell id="Q5orRy43gQItZG8SAxax-25" style="edgeStyle=orthogonalEdgeStyle;rounded=0;orthogonalLoop=1;jettySize=auto;html=1;entryX=0;entryY=0.5;entryDx=0;entryDy=0;exitX=1;exitY=0.5;exitDx=0;exitDy=0;" edge="1" parent="WIyWlLk6GJQsqaUBKTNV-1" source="Q5orRy43gQItZG8SAxax-5" target="Q5orRy43gQItZG8SAxax-22">
          <mxGeometry relative="1" as="geometry">
            <mxPoint x="720" y="360" as="sourcePoint" />
          </mxGeometry>
        </mxCell>
        <mxCell id="Q5orRy43gQItZG8SAxax-31" style="edgeStyle=orthogonalEdgeStyle;rounded=0;orthogonalLoop=1;jettySize=auto;html=1;exitX=1;exitY=0.5;exitDx=0;exitDy=0;entryX=0;entryY=0.5;entryDx=0;entryDy=0;" edge="1" parent="WIyWlLk6GJQsqaUBKTNV-1" source="Q5orRy43gQItZG8SAxax-14" target="Q5orRy43gQItZG8SAxax-30">
          <mxGeometry relative="1" as="geometry">
            <mxPoint x="800" y="591.75" as="sourcePoint" />
          </mxGeometry>
        </mxCell>
        <mxCell id="Q5orRy43gQItZG8SAxax-37" style="edgeStyle=orthogonalEdgeStyle;rounded=0;orthogonalLoop=1;jettySize=auto;html=1;entryX=0;entryY=0.5;entryDx=0;entryDy=0;exitX=1;exitY=0.5;exitDx=0;exitDy=0;" edge="1" parent="WIyWlLk6GJQsqaUBKTNV-1" source="Q5orRy43gQItZG8SAxax-14" target="Q5orRy43gQItZG8SAxax-28">
          <mxGeometry relative="1" as="geometry">
            <mxPoint x="800" y="591.75" as="sourcePoint" />
          </mxGeometry>
        </mxCell>
        <mxCell id="Q5orRy43gQItZG8SAxax-14" value="未安装商品推荐插件&lt;br&gt;890(18%)" style="whiteSpace=wrap;html=1;rounded=1;" vertex="1" parent="WIyWlLk6GJQsqaUBKTNV-1">
          <mxGeometry x="680" y="523.25" width="120" height="60" as="geometry" />
        </mxCell>
        <mxCell id="Q5orRy43gQItZG8SAxax-16" value="已安装商品推荐插件未开启&lt;br&gt;258(5%)" style="whiteSpace=wrap;html=1;rounded=1;" vertex="1" parent="WIyWlLk6GJQsqaUBKTNV-1">
          <mxGeometry x="680" y="250" width="120" height="60" as="geometry" />
        </mxCell>
        <mxCell id="Q5orRy43gQItZG8SAxax-17" value="已安装商品推荐插件开启页面3个以下&lt;br&gt;237(9%)" style="whiteSpace=wrap;html=1;rounded=1;" vertex="1" parent="WIyWlLk6GJQsqaUBKTNV-1">
          <mxGeometry x="840" y="40.25" width="120" height="60" as="geometry" />
        </mxCell>
        <mxCell id="Q5orRy43gQItZG8SAxax-20" value="已安装商品推荐插件开启页面4个以上&lt;br&gt;165(4%)" style="whiteSpace=wrap;html=1;rounded=1;fillColor=#eeeeee;strokeColor=#36393d;" vertex="1" parent="WIyWlLk6GJQsqaUBKTNV-1">
          <mxGeometry x="840" y="-86.75" width="120" height="60" as="geometry" />
        </mxCell>
        <mxCell id="Q5orRy43gQItZG8SAxax-26" value="" style="edgeStyle=orthogonalEdgeStyle;rounded=0;orthogonalLoop=1;jettySize=auto;html=1;entryX=0;entryY=0.5;entryDx=0;entryDy=0;" edge="1" parent="WIyWlLk6GJQsqaUBKTNV-1" source="Q5orRy43gQItZG8SAxax-22" target="Q5orRy43gQItZG8SAxax-17">
          <mxGeometry relative="1" as="geometry" />
        </mxCell>
        <mxCell id="Q5orRy43gQItZG8SAxax-27" style="edgeStyle=orthogonalEdgeStyle;rounded=0;orthogonalLoop=1;jettySize=auto;html=1;entryX=0;entryY=0.5;entryDx=0;entryDy=0;" edge="1" parent="WIyWlLk6GJQsqaUBKTNV-1" source="Q5orRy43gQItZG8SAxax-22" target="Q5orRy43gQItZG8SAxax-20">
          <mxGeometry relative="1" as="geometry" />
        </mxCell>
        <mxCell id="Q5orRy43gQItZG8SAxax-22" value="已安装商品推荐插件已开启&lt;br&gt;402(13%)" style="whiteSpace=wrap;html=1;rounded=1;" vertex="1" parent="WIyWlLk6GJQsqaUBKTNV-1">
          <mxGeometry x="680" y="-16.75" width="120" height="60" as="geometry" />
        </mxCell>
        <mxCell id="Q5orRy43gQItZG8SAxax-42" style="edgeStyle=orthogonalEdgeStyle;rounded=0;orthogonalLoop=1;jettySize=auto;html=1;exitX=1;exitY=0.5;exitDx=0;exitDy=0;entryX=0;entryY=0.5;entryDx=0;entryDy=0;" edge="1" parent="WIyWlLk6GJQsqaUBKTNV-1" target="Q5orRy43gQItZG8SAxax-45">
          <mxGeometry relative="1" as="geometry">
            <mxPoint x="960" y="70.25" as="sourcePoint" />
          </mxGeometry>
        </mxCell>
        <mxCell id="Q5orRy43gQItZG8SAxax-43" style="edgeStyle=orthogonalEdgeStyle;rounded=0;orthogonalLoop=1;jettySize=auto;html=1;entryX=0;entryY=0.5;entryDx=0;entryDy=0;exitX=1;exitY=0.5;exitDx=0;exitDy=0;" edge="1" parent="WIyWlLk6GJQsqaUBKTNV-1" target="Q5orRy43gQItZG8SAxax-44">
          <mxGeometry relative="1" as="geometry">
            <mxPoint x="960" y="70.25" as="sourcePoint" />
          </mxGeometry>
        </mxCell>
        <mxCell id="Q5orRy43gQItZG8SAxax-49" value="" style="group" vertex="1" connectable="0" parent="WIyWlLk6GJQsqaUBKTNV-1">
          <mxGeometry x="840" y="459.75" width="120" height="187" as="geometry" />
        </mxCell>
        <mxCell id="Q5orRy43gQItZG8SAxax-28" value="有商品推荐卡片&lt;br&gt;730(15%)" style="whiteSpace=wrap;html=1;rounded=1;fillColor=#eeeeee;strokeColor=#36393d;" vertex="1" parent="Q5orRy43gQItZG8SAxax-49">
          <mxGeometry width="120" height="60" as="geometry" />
        </mxCell>
        <mxCell id="Q5orRy43gQItZG8SAxax-30" value="无商品推荐卡片&lt;br&gt;160(3%)" style="whiteSpace=wrap;html=1;rounded=1;" vertex="1" parent="Q5orRy43gQItZG8SAxax-49">
          <mxGeometry y="127" width="120" height="60" as="geometry" />
        </mxCell>
        <mxCell id="Q5orRy43gQItZG8SAxax-50" value="" style="group" vertex="1" connectable="0" parent="WIyWlLk6GJQsqaUBKTNV-1">
          <mxGeometry x="1000" y="-23.25" width="120" height="187" as="geometry" />
        </mxCell>
        <mxCell id="Q5orRy43gQItZG8SAxax-44" value="有商品推荐卡片&lt;br&gt;139(3%)" style="whiteSpace=wrap;html=1;rounded=1;fillColor=#eeeeee;strokeColor=#36393d;" vertex="1" parent="Q5orRy43gQItZG8SAxax-50">
          <mxGeometry width="120" height="60" as="geometry" />
        </mxCell>
        <mxCell id="Q5orRy43gQItZG8SAxax-45" value="无商品推荐卡片&lt;br&gt;98(2%)" style="whiteSpace=wrap;html=1;rounded=1;" vertex="1" parent="Q5orRy43gQItZG8SAxax-50">
          <mxGeometry y="127" width="120" height="60" as="geometry" />
        </mxCell>
        <mxCell id="Q5orRy43gQItZG8SAxax-51" value="" style="group" vertex="1" connectable="0" parent="WIyWlLk6GJQsqaUBKTNV-1">
          <mxGeometry x="800" y="190" width="160" height="187" as="geometry" />
        </mxCell>
        <mxCell id="Q5orRy43gQItZG8SAxax-38" style="edgeStyle=orthogonalEdgeStyle;rounded=0;orthogonalLoop=1;jettySize=auto;html=1;exitX=1;exitY=0.5;exitDx=0;exitDy=0;entryX=0;entryY=0.5;entryDx=0;entryDy=0;" edge="1" parent="Q5orRy43gQItZG8SAxax-51" target="Q5orRy43gQItZG8SAxax-41">
          <mxGeometry relative="1" as="geometry">
            <mxPoint y="93.5" as="sourcePoint" />
          </mxGeometry>
        </mxCell>
        <mxCell id="Q5orRy43gQItZG8SAxax-39" style="edgeStyle=orthogonalEdgeStyle;rounded=0;orthogonalLoop=1;jettySize=auto;html=1;entryX=0;entryY=0.5;entryDx=0;entryDy=0;exitX=1;exitY=0.5;exitDx=0;exitDy=0;" edge="1" parent="Q5orRy43gQItZG8SAxax-51" target="Q5orRy43gQItZG8SAxax-40">
          <mxGeometry relative="1" as="geometry">
            <mxPoint y="93.5" as="sourcePoint" />
          </mxGeometry>
        </mxCell>
        <mxCell id="Q5orRy43gQItZG8SAxax-48" value="" style="group" vertex="1" connectable="0" parent="Q5orRy43gQItZG8SAxax-51">
          <mxGeometry x="40" width="120" height="187" as="geometry" />
        </mxCell>
        <mxCell id="Q5orRy43gQItZG8SAxax-40" value="有商品推荐卡片&lt;br&gt;251(5%)" style="whiteSpace=wrap;html=1;rounded=1;fillColor=#eeeeee;strokeColor=#36393d;" vertex="1" parent="Q5orRy43gQItZG8SAxax-48">
          <mxGeometry width="120" height="60" as="geometry" />
        </mxCell>
        <mxCell id="Q5orRy43gQItZG8SAxax-41" value="无商品推荐卡片&lt;br&gt;7(0.1%)" style="whiteSpace=wrap;html=1;rounded=1;" vertex="1" parent="Q5orRy43gQItZG8SAxax-48">
          <mxGeometry y="127" width="120" height="60" as="geometry" />
        </mxCell>
        <mxCell id="Q5orRy43gQItZG8SAxax-52" value="20220725" style="text;html=1;strokeColor=none;fillColor=none;align=center;verticalAlign=middle;whiteSpace=wrap;rounded=0;" vertex="1" parent="WIyWlLk6GJQsqaUBKTNV-1">
          <mxGeometry x="60" y="120" width="60" height="30" as="geometry" />
        </mxCell>
      </root>
    </mxGraphModel>
  </diagram>
</mxfile>
